<?xml version="1.0" encoding="UTF-8"?>
<svg version="1.1" xmlns="http://www.w3.org/2000/svg" width="512" height="512">
<path d="M0 0 C0.77537109 0.21430664 1.55074219 0.42861328 2.34960938 0.64941406 C13.51816597 3.83314783 23.87856931 8.32909194 34 14 C34.66241699 14.37108887 35.32483398 14.74217773 36.00732422 15.12451172 C49.89656798 23.05115047 68.65321029 35.30642058 76 50 C75.94030928 53.52175244 75.70788335 55.88228944 73.8125 58.875 C71.1043602 60.55591436 69.19500105 60.93735292 66 61 C62.0649298 59.07432735 59.49296512 56.52735211 56.6875 53.25 C56.09195312 52.56421875 55.49640625 51.8784375 54.8828125 51.171875 C53.60685628 49.70002508 52.35208099 48.20959257 51.1171875 46.703125 C47.92837196 43.28393875 45.42753047 41.28412014 40.78125 40.359375 C36.44393291 40.23180685 32.30698513 40.51448531 28 41 C27.04851074 41.10393066 26.09702148 41.20786133 25.11669922 41.31494141 C3.56086814 43.83268428 -17.11320677 49.29952796 -37 58 C-35.70449219 58.08636719 -34.40898437 58.17273437 -33.07421875 58.26171875 C-4.15710702 60.44098729 21.95651621 69.76139669 44 89 C44.65613281 89.53496094 45.31226563 90.06992188 45.98828125 90.62109375 C66.59076505 107.47767141 79.4711779 133.39282395 85 159 C87.97 159.33 90.94 159.66 94 160 C92.76498218 133.06054619 90.96482945 107.07622098 77.80078125 82.85742188 C76.30253422 79.38221963 76.50101221 76.74240841 77 73 C78.5625 70.5 78.5625 70.5 81 69 C84.4375 68.4375 84.4375 68.4375 88 69 C92.24068032 72.51295047 94.44328493 76.36430435 96.5 81.375 C96.79624268 82.08052002 97.09248535 82.78604004 97.39770508 83.51293945 C108.34644176 110.01900515 110.24920392 135.67382105 110 164 C111.12728516 164.38865234 111.12728516 164.38865234 112.27734375 164.78515625 C117.41588176 167.07796159 120.73513618 171.43332883 123.1953125 176.42553711 C125.88050625 183.46690272 126.58563228 189.62281684 126.4375 197.125 C126.44458984 198.14464844 126.45167969 199.16429687 126.45898438 200.21484375 C126.37645824 210.1052831 124.28558283 218.52606678 117.24609375 225.81640625 C109.96859028 232.63817565 103.35319556 234.50042722 93.5 234.1875 C92.67757813 234.17396484 91.85515625 234.16042969 91.0078125 234.14648438 C89.00491779 234.11155016 87.00236644 234.05776057 85 234 C84.80664062 234.92941406 84.61328125 235.85882813 84.4140625 236.81640625 C84.02347656 238.67072266 84.02347656 238.67072266 83.625 240.5625 C83.36976563 241.78066406 83.11453125 242.99882812 82.8515625 244.25390625 C82 248 82 248 80.8515625 251.328125 C79.73262065 256.15292015 80.18355466 260.30544923 80.75 265.1875 C80.88148438 266.49170898 80.88148438 266.49170898 81.015625 267.82226562 C81.20079283 269.5723588 81.41209266 271.31991527 81.65139771 273.06343079 C82 276 82 276 82.05050659 278.68144226 C82.7533176 289.43407647 89.58098769 294.75743887 96.9609375 301.7265625 C98.27390612 303.00557094 99.58421857 304.28731117 100.89199829 305.57162476 C104.32549058 308.93328507 107.7852943 312.26632216 111.2543335 315.59124756 C116.80336553 320.91285632 122.32373888 326.26330505 127.81962967 331.63975143 C129.7339907 333.50071597 131.6670257 335.34052929 133.60263062 337.17935181 C140.86800084 344.18213234 146.82893019 350.51532838 147.4375 361.125 C146.48851758 369.53027289 143.29273541 375.28530292 137 381 C131.24401792 384.6115966 124.62122595 385.17162555 118 384 C108.87487227 380.91613007 102.87974385 374.49478418 96.35416222 367.76055145 C94.47759379 365.82416222 92.58569014 363.90395304 90.68940735 361.98687744 C86.67440873 357.92190425 82.6804168 353.83664612 78.6875 349.75 C74.03973317 344.99810295 69.3835498 340.25482706 64.71155739 335.52674103 C62.8499573 333.63552305 61.00127244 331.73229607 59.15299988 329.82806396 C58.0136135 328.67095499 56.87369367 327.51437095 55.7331543 326.35839844 C55.22449829 325.8275061 54.71584229 325.29661377 54.19177246 324.74963379 C51.24579124 321.79306206 49.19064759 320.34592827 45 320 C44.23300781 319.87496094 43.46601563 319.74992187 42.67578125 319.62109375 C37.0972646 319.18772138 34.22834564 320.11896398 29.875 323.6875 C29.05773437 324.41324219 28.24046875 325.13898438 27.3984375 325.88671875 C19.32532348 333 19.32532348 333 15 333 C15.08203123 336.31342702 15.19475771 339.62516492 15.3125 342.9375 C15.33505859 343.86369141 15.35761719 344.78988281 15.38085938 345.74414062 C15.68034922 353.50365034 16.99126341 361.78225803 22 368 C28.96667345 373.33238956 36.92918768 375.37962441 45.23360062 377.7593956 C47.8376334 378.50611546 50.43666721 379.26840793 53.03500366 380.03469849 C59.49166043 381.93556097 65.95557547 383.81120824 72.42004395 385.68530273 C77.88652554 387.27085329 83.3495888 388.86731782 88.80866623 390.47818375 C91.34341454 391.22147076 93.88231483 391.94903069 96.42178345 392.67599487 C109.88995576 396.60184235 122.37030755 401.52840634 133 411 C133.66257812 411.56976563 134.32515625 412.13953125 135.0078125 412.7265625 C150.38864153 426.901052 156.11442521 445.83953841 157.10498047 466.15283203 C157.52907628 477.65610165 157.61159048 488.73538734 150 498 C144.5465468 503.70550356 138.76807326 508.0119435 130.6671648 508.38031673 C129.01793341 508.39797497 127.36847667 508.39941662 125.7191925 508.38768005 C124.80540162 508.39306559 123.89161073 508.39845113 122.95012921 508.40399987 C119.89931294 508.41826603 116.84893137 508.41117906 113.7980957 508.40405273 C111.60653332 508.40975682 109.41497392 508.41672123 107.22341919 508.42485046 C101.27949695 508.44278808 95.33572227 508.44161286 89.39178109 508.43590808 C84.43108086 508.43281855 79.47040906 508.43890574 74.50971287 508.44494683 C62.14312269 508.45979376 49.77660481 508.45617665 37.4100159 508.44408352 C26.6689633 508.4341412 15.92808272 508.44711092 5.18705664 508.47101771 C-5.84664474 508.4953908 -16.880262 508.50462151 -27.91398937 508.49836498 C-34.10682889 508.49498858 -40.2995261 508.49745647 -46.49234581 508.51461601 C-52.31104531 508.53003591 -58.12941481 508.52618471 -63.94810104 508.50731087 C-66.0862897 508.50361191 -68.22450255 508.50677123 -70.36266899 508.51719666 C-73.27554562 508.53031817 -76.1873153 508.51893788 -79.10014343 508.50120544 C-79.9513987 508.51081045 -80.80265396 508.52041546 -81.67970484 508.53031152 C-85.30626733 508.48470657 -87.53722572 508.33220444 -90.52499104 506.18742466 C-92.69398351 502.97082887 -92.54097493 500.78682448 -92 497 C-89.86492826 494.15564205 -88.68835885 493.11886141 -85.14958572 492.50780869 C-84.03974697 492.51149586 -82.92990822 492.51518303 -81.78643799 492.51898193 C-79.87238411 492.51073395 -79.87238411 492.51073395 -77.91966248 492.50231934 C-76.50796132 492.51647506 -75.09626397 492.53101429 -73.68457031 492.54589844 C-72.1963148 492.54702687 -70.70805707 492.54639314 -69.21980286 492.54412842 C-65.18071736 492.54298016 -61.14210644 492.56650725 -57.10313129 492.59442425 C-52.88174657 492.61941938 -48.66035112 492.62177841 -44.43890381 492.62652588 C-36.4455482 492.63896123 -28.45241127 492.67179034 -20.45915198 492.71192384 C-11.3589005 492.7566242 -2.25863861 492.77862421 6.84169531 492.79870558 C25.56125765 492.84052254 44.28060324 492.91169057 63 493 C63 484.09 63 475.18 63 466 C-1.02 466 -65.04 466 -131 466 C-131 474.91 -131 483.82 -131 493 C-124.88179836 492.88153755 -124.88179836 492.88153755 -118.7644043 492.72973633 C-117.61838745 492.71849731 -117.61838745 492.71849731 -116.44921875 492.70703125 C-115.66893311 492.6913208 -114.88864746 492.67561035 -114.0847168 492.65942383 C-111.46309503 493.08771313 -110.60300661 493.92177271 -109 496 C-108.6015625 498.15625 -108.6015625 498.15625 -108.625 500.5 C-108.61339844 501.66015625 -108.61339844 501.66015625 -108.6015625 502.84375 C-109.10072243 505.54508609 -109.8772534 506.29621504 -112 508 C-113.90574074 508.38031673 -113.90574074 508.38031673 -116.09658813 508.38768005 C-117.34538757 508.402537 -117.34538757 508.402537 -118.61941528 508.41769409 C-119.5295639 508.41319244 -120.43971252 508.4086908 -121.37744141 508.40405273 C-122.33877991 508.41091599 -123.30011841 508.41777924 -124.29058838 508.42485046 C-127.47772892 508.44319235 -130.66438034 508.43926839 -133.8515625 508.43359375 C-136.06774048 508.43815396 -138.28391705 508.44345904 -140.50009155 508.44947815 C-145.15230031 508.45842523 -149.80433759 508.45597021 -154.45654297 508.44604492 C-160.40495737 508.43458851 -166.35277521 508.45470782 -172.30111122 508.48396206 C-176.88235208 508.50235871 -181.46345115 508.50202405 -186.0447197 508.49632454 C-188.23666594 508.49617156 -190.42862193 508.50219646 -192.62053299 508.51461601 C-195.69612549 508.52957871 -198.77063168 508.51880747 -201.84619141 508.50170898 C-202.74419464 508.51137695 -203.64219788 508.52104492 -204.56741333 508.53100586 C-213.01392978 508.43322022 -220.15848566 505.56075261 -226.4296875 499.84375 C-236.63468257 487.86176574 -234.62535671 471.67010624 -234 457 C-232.40419991 439.14631712 -222.8859511 421.36287989 -209.34765625 409.71875 C-199.97493867 402.32895953 -189.95240851 397.80988141 -178.6875 394.125 C-178.04200195 393.9094043 -177.39650391 393.69380859 -176.73144531 393.47167969 C-171.38022638 391.81946002 -165.86030257 390.92738654 -160.5 392.9375 C-158.39807477 395.8276472 -158.47184268 398.24358694 -158.37109375 401.74609375 C-159.33536072 405.20188282 -160.97724247 406.11174786 -164 408 C-167.00922366 409.17698744 -170.08034151 410.05776053 -173.1875 410.9375 C-188.77309384 415.64990393 -201.09645922 422.7815905 -210 437 C-215.57352316 447.93952152 -217.3590107 458.51164776 -217.375 470.6875 C-217.39949219 471.68072266 -217.42398438 472.67394531 -217.44921875 473.69726562 C-217.47422256 479.96905489 -217.1411231 484.13895857 -213 489 C-206.04795326 492.69720361 -198.3194339 492.47090402 -190.65234375 492.51171875 C-189.39990372 492.52966995 -188.14746368 492.54762115 -186.85707092 492.56611633 C-183.55770749 492.61086189 -180.2585366 492.64329237 -176.95898438 492.66955566 C-173.57994443 492.69955077 -170.20113315 492.74601492 -166.82226562 492.79101562 C-160.21495018 492.87571386 -153.60761896 492.94415638 -147 493 C-147.01110306 492.3596431 -147.02220612 491.71928619 -147.03364563 491.05952454 C-147.14429503 484.3924454 -147.2196908 477.72562722 -147.2746582 471.05786133 C-147.29979671 468.56979782 -147.33391247 466.08180812 -147.37719727 463.59399414 C-147.4378743 460.01690459 -147.46621734 456.44079165 -147.48828125 452.86328125 C-147.51408768 451.75165115 -147.5398941 450.64002106 -147.56648254 449.4947052 C-147.56928279 441.77808506 -147.56928279 441.77808506 -144.65698242 437.79760742 C-142 436 -142 436 -139 435.375 C-134.82137038 436.24554784 -133.43112843 437.49631491 -131 441 C-131 443.97 -131 446.94 -131 450 C-66.98 450 -2.96 450 63 450 C63 446.7 63 443.4 63 440 C65.0625 437.3125 65.0625 437.3125 68 436 C71.61431429 436.06231576 73.97010393 436.21041301 76.875 438.4375 C79.00498782 441.39581641 79.12239682 443.30689021 79.11352539 446.90869141 C79.11344986 447.92959869 79.11337433 448.95050598 79.11329651 450.00234985 C79.10813522 451.10759003 79.10297394 452.2128302 79.09765625 453.3515625 C79.09553383 455.04531509 79.09553383 455.04531509 79.09336853 456.77328491 C79.08775744 460.39054988 79.07520303 464.00775364 79.0625 467.625 C79.05748643 470.07291577 79.05292328 472.52083252 79.04882812 474.96875 C79.0377844 480.97918766 79.02103544 486.98958946 79 493 C85.7080101 492.90739778 92.41567 492.80004989 99.12329102 492.68261719 C101.40351049 492.64441659 103.68378839 492.60954838 105.96411133 492.578125 C109.24842154 492.53228076 112.53233262 492.47431786 115.81640625 492.4140625 C117.33712486 492.39673569 117.33712486 492.39673569 118.88856506 492.37905884 C127.80885989 492.30423366 127.80885989 492.30423366 135.7421875 488.66796875 C142.40730537 479.95734919 140.53673213 467.20692376 139.3125 456.8125 C137.11905635 443.37954854 130.41744122 430.28540368 119.53173828 421.7734375 C105.12624306 411.68264509 87.78038025 407.70048023 71.10772705 402.93444824 C66.78350323 401.69520307 62.46478693 400.43693136 58.14592075 399.17916393 C54.78129726 398.19931606 51.41589842 397.22270185 48.04685974 396.25813293 C12.70029393 386.06761644 12.70029393 386.06761644 4.59765625 372.68359375 C-0.81540476 362.65766336 -1.31708678 353.2389649 -1 342 C-1.59683594 342.25394531 -2.19367188 342.50789063 -2.80859375 342.76953125 C-27.58719884 352.59997339 -52.40925012 349.86605268 -77 341 C-76.95359375 342.24394531 -76.9071875 343.48789062 -76.859375 344.76953125 C-76.5069076 358.15118496 -77.58450251 368.73645539 -87 379 C-95.24158155 387.50294249 -104.94665165 390.51452774 -116.125 393.75 C-117.17042969 394.06582031 -118.21585937 394.38164062 -119.29296875 394.70703125 C-124.66597768 396.27614005 -129.39485276 397.57180026 -135 397 C-137.4375 395.5 -137.4375 395.5 -139 393 C-139.60921535 390.19531045 -139.86557371 387.75263191 -139 385 C-135.47761407 381.72767231 -132.43022911 380.24884383 -127.81640625 379 C-126.64142578 378.67 -125.46644531 378.34 -124.25585938 378 C-123.03705078 377.67 -121.81824219 377.34 -120.5625 377 C-109.98400466 374.12668986 -102.62681255 372.01982819 -96 363 C-91.80826248 354.04155627 -91.51599543 341.46920472 -94 332 C-97.54717373 326.71717397 -103.27550318 324.09658547 -108.79394531 321.24902344 C-112.16861894 319.33835165 -114.85232016 316.87370517 -117.625 314.1875 C-118.50414062 313.35605469 -119.38328125 312.52460938 -120.2890625 311.66796875 C-121.18367188 310.78753906 -122.07828125 309.90710938 -123 309 C-123.83640015 308.19103271 -123.83640015 308.19103271 -124.68969727 307.36572266 C-144.15671113 288.31538516 -158.53238417 261.14306186 -162 234 C-163.18335938 234.04640625 -164.36671875 234.0928125 -165.5859375 234.140625 C-176.02331126 234.4276997 -183.67461421 233.88148673 -192.75 228.3125 C-201.85249542 218.95715748 -203.36183829 209.9115611 -203.375 197.25 C-203.39949219 196.02539062 -203.42398438 194.80078125 -203.44921875 193.5390625 C-203.47764536 184.68891043 -202.4426848 177.49333141 -196.96484375 170.34375 C-196.29582031 169.7353125 -195.62679687 169.126875 -194.9375 168.5 C-194.26589844 167.8709375 -193.59429687 167.241875 -192.90234375 166.59375 C-191 165 -191 165 -188 163 C-187.53756754 160.35657509 -187.53756754 160.35657509 -187.59375 157.234375 C-187.5740918 156.04497314 -187.55443359 154.85557129 -187.53417969 153.63012695 C-187.52290039 152.34968506 -187.51162109 151.06924316 -187.5 149.75 C-186.52584427 106.25287598 -173.57834187 69.67061126 -143 38 C-142.45996338 37.43659912 -141.91992676 36.87319824 -141.36352539 36.29272461 C-106.18558113 0.25714236 -48.16803231 -13.55886771 0 0 Z M-132 50 C-132.59039062 50.5259375 -133.18078125 51.051875 -133.7890625 51.59375 C-156.06945343 72.29022688 -169.15319566 105.05576576 -171 135 C-171.10629897 139.37631498 -171.09558382 143.74775654 -171.0625 148.125 C-171.05798828 149.27226562 -171.05347656 150.41953125 -171.04882812 151.6015625 C-171.03716339 154.40109813 -171.02079614 157.20051986 -171 160 C-168.03 160 -165.06 160 -162 160 C-161.50693359 158.16501953 -161.50693359 158.16501953 -161.00390625 156.29296875 C-147.98398642 109.5298347 -118.54854107 85.40872078 -78.13571167 61.9906311 C-73.99193607 59.58633254 -69.88005344 57.13410877 -65.7800293 54.65625 C-40.11264363 39.24655797 -11.5904075 30.09353463 18 26 C18 25.34 18 24.68 18 24 C-34.62191407 1.11064724 -90.20239684 10.69558721 -132 50 Z M-109 100 C-109.78632813 100.64195313 -110.57265625 101.28390625 -111.3828125 101.9453125 C-132.20299956 119.63268144 -144.56159092 145.13095762 -148 172 C-148.55315307 179.16232985 -148.53800787 186.33070739 -148.46655273 193.51000977 C-148.43742822 196.69535093 -148.44603651 199.87903341 -148.45898438 203.06445312 C-148.42060485 240.63091802 -135.91793281 272.06879031 -110 299.4375 C-90.58046222 318.42368687 -64.65225312 332.57353803 -37.1875 333.3125 C-21.70648416 333.03970677 -7.66146635 328.35285658 5.75 320.875 C6.3591626 320.53831299 6.9683252 320.20162598 7.59594727 319.85473633 C11.25217184 317.77171379 11.25217184 317.77171379 13 314 C12.48050781 313.64808594 11.96101562 313.29617188 11.42578125 312.93359375 C4.2627137 307.86251265 -0.34823105 302.85948798 -2 294 C-3.7096301 281.15467112 2.53525015 269.06186073 10 259 C18.54573032 247.90835419 30.45336481 239.77967846 44 236 C52.18712837 235.31328008 59.55612556 235.35402068 67 239 C72.25692297 227.15848114 71.34491704 212.75315474 71.31567383 200.05834961 C71.31251594 197.20192153 71.33605981 194.3465353 71.36132812 191.49023438 C71.47562708 158.38264854 61.67709076 129.75075052 38.25 105.8125 C-1.46018819 66.52855829 -66.30061185 63.55693246 -109 100 Z M-185.125 182.45703125 C-188.03891904 186.93914116 -187.54322488 191.89562276 -187.4375 197.0625 C-187.44458984 198.04283203 -187.45167969 199.02316406 -187.45898438 200.03320312 C-187.40044921 206.66568743 -186.46229985 210.22991267 -182 215.25 C-177.09906462 219.53831846 -170.10261233 218.0604219 -164 218 C-164 213.71 -164 209.42 -164 205 C-166.3821875 204.8453125 -166.3821875 204.8453125 -168.8125 204.6875 C-173.51277068 204.38228762 -173.51277068 204.38228762 -175.77734375 202.60546875 C-177.44588426 200.4145098 -177.73988913 198.73116418 -178 196 C-177.67 194.35 -177.34 192.7 -177 191 C-172.71 190.34 -168.42 189.68 -164 189 C-164 184.71 -164 180.42 -164 176 C-176.04003981 175.34711842 -176.04003981 175.34711842 -185.125 182.45703125 Z M87 176 C87 180.29 87 184.58 87 189 C89.10375 189.1546875 89.10375 189.1546875 91.25 189.3125 C93.97511788 189.63865584 96.01400324 190.00580622 98.5625 191.0625 C100.54764213 193.73812636 100.5694344 195.85328041 100.37109375 199.12890625 C100 201 100 201 98.5625 202.9375 C94.74099096 204.52202814 91.12223857 204.69689422 87 205 C87 209.29 87 213.58 87 218 C95.63212916 218.81399844 95.63212916 218.81399844 103.625 216.25 C107.22130612 212.84297315 109.76376538 210.05136383 110.16113281 204.91870117 C110.2066861 202.3414974 110.23526049 199.7650725 110.25 197.1875 C110.270625 196.29740234 110.29125 195.40730469 110.3125 194.49023438 C110.34371893 189.22594228 109.97531399 185.53717715 107 181 C100.40461336 175.04806571 95.74090396 175.91430486 87 176 Z M29 261 C23.36635233 266.24975345 19.34390929 272.09685393 16 279 C15.52046875 279.94552734 15.52046875 279.94552734 15.03125 280.91015625 C13.21008787 284.74640054 12.37193161 287.78296937 13 292 C15.35537135 296.44903476 17.55744575 298.72616014 22 301 C24.70389657 301.67038263 24.70389657 301.67038263 27.5625 301.94921875 C28.60664063 302.07490234 29.65078125 302.20058594 30.7265625 302.33007812 C31.80679687 302.44802734 32.88703125 302.56597656 34 302.6875 C35.08023437 302.81705078 36.16046875 302.94660156 37.2734375 303.08007812 C46.66246794 304.69121156 46.66246794 304.69121156 55.09375 301.44921875 C60.78660789 296.85355753 66.37177451 292.24725526 67.48974609 284.68896484 C67.46426034 274.93060312 66.32134244 263.41024835 61 255 C50.9994419 245.26261448 38.25432173 253.88021075 29 261 Z M71.8359375 304.96875 C71.02382813 305.8040625 70.21171875 306.639375 69.375 307.5 C68.14910156 308.75296875 68.14910156 308.75296875 66.8984375 310.03125 C66.27195312 310.6809375 65.64546875 311.330625 65 312 C69.98404168 318.03331362 75.41915303 323.5184171 81 329 C84.21524305 327.59155282 86.32183868 325.89655214 88.75 323.375 C89.36359375 322.74335938 89.9771875 322.11171875 90.609375 321.4609375 C91.06828125 320.97882813 91.5271875 320.49671875 92 320 C87.04381506 314.00040771 81.80773381 308.19144551 76 303 C73.7589659 302.77568714 73.7589659 302.77568714 71.8359375 304.96875 Z M100.93359375 332.96875 C100.10988281 333.8040625 99.28617187 334.639375 98.4375 335.5 C97.61121094 336.3353125 96.78492188 337.170625 95.93359375 338.03125 C94.97646484 339.00578125 94.97646484 339.00578125 94 340 C95.58093516 343.88001126 98.22273506 346.49653127 101.15625 349.38671875 C101.65918579 349.88919632 102.16212158 350.39167389 102.68029785 350.90937805 C103.74039085 351.96645919 104.80290404 353.02111813 105.86767578 354.07348633 C107.49963077 355.68713491 109.12339153 357.30869291 110.74609375 358.93164062 C111.77817429 359.95880735 112.81071081 360.98551616 113.84375 362.01171875 C114.33025024 362.49710617 114.81675049 362.98249359 115.31799316 363.48258972 C118.20563766 366.32964393 119.79507336 367.84283566 123.875 368.375 C127.13970998 368.28049939 127.13970998 368.28049939 129.4375 365.875 C131.23028418 363.13703813 131.23028418 363.13703813 130.95703125 360.21240234 C129.71004734 356.02673543 127.31940716 353.67181002 124.25 350.7265625 C123.67668945 350.15795502 123.10337891 349.58934753 122.51269531 349.00350952 C120.68654274 347.1986368 118.84345919 345.41217403 117 343.625 C115.75932894 342.400841 114.51973276 341.17559161 113.28125 339.94921875 C107.58555517 332.65802984 107.58555517 332.65802984 100.93359375 332.96875 Z " fill="#000000" transform="translate(288,4)"/>
<path d="M0 0 C4.07751693 2.0772256 6.80765514 5.05915996 8.48510742 9.35522461 C9.49788419 12.51621305 10.41854471 15.69755483 11.31054688 18.89453125 C12.71109964 23.61107716 12.71109964 23.61107716 15.9140625 27.21875 C19.90447754 28.7924348 23.95111442 30.06825877 28.07226562 31.2421875 C34.02476371 33.07930366 37.92839787 35.84975701 41.5625 40.9375 C43.40906955 46.47720864 43.92895265 52.12398273 41.7734375 57.66015625 C37.99314237 64.18421397 32.76149893 67.22626871 25.61914062 69.19726562 C24.19634695 69.56837218 22.77181487 69.93287152 21.34570312 70.29101562 C18.09999999 71.19785836 16.04059179 71.89118878 13.84765625 74.5078125 C12.19938422 78.49252401 10.93745932 82.55604071 9.7578125 86.69726562 C7.84184471 92.90525336 5.0936419 96.95053288 -0.625 100.1875 C-6.26184508 101.90721545 -10.28602028 101.90646819 -15.9375 100.25 C-22.48450046 96.49153678 -25.6017013 91.60984717 -27.63085938 84.4453125 C-28.04718043 82.84306745 -28.45591644 81.23883423 -28.85742188 79.6328125 C-30.10672654 75.27663645 -30.56250626 73.7497755 -34.62890625 71.37890625 C-35.84449219 71.02699219 -37.06007813 70.67507813 -38.3125 70.3125 C-39.323125 69.99667969 -40.33375 69.68085938 -41.375 69.35546875 C-42.8290625 68.93201172 -42.8290625 68.93201172 -44.3125 68.5 C-51.35338333 66.1736005 -55.59108799 63.36661808 -59.25 56.875 C-61.25433137 50.15459481 -60.6279827 45.48615745 -57.3125 39.3125 C-52.44497834 33.52409587 -46.67625912 31.26404508 -39.5625 29.125 C-38.43328125 28.78082031 -37.3040625 28.43664062 -36.140625 28.08203125 C-33.3125 27.3125 -33.3125 27.3125 -31.3125 27.3125 C-31.14234375 26.71824219 -30.9721875 26.12398438 -30.796875 25.51171875 C-24.7739711 4.91210595 -24.7739711 4.91210595 -16.5625 -0.5 C-10.77102867 -2.61611452 -5.6409648 -2.58412913 0 0 Z M-10.3125 14.3125 C-10.68761719 15.53066406 -11.06273437 16.74882812 -11.44921875 18.00390625 C-11.96548966 19.62781292 -12.4824538 21.25149932 -13 22.875 C-13.36641602 24.07479492 -13.36641602 24.07479492 -13.74023438 25.29882812 C-15.86713306 31.89490633 -18.4968783 37.97429321 -24.8125 41.5 C-29.54493101 43.62143459 -34.55817214 44.93459003 -39.5546875 46.28515625 C-42.6035454 47.1141607 -42.6035454 47.1141607 -44.3125 50.3125 C-39.80197261 53.307975 -35.07659598 54.77551077 -29.92773438 56.2421875 C-24.34678381 57.96463316 -20.2084794 60.41662368 -16.95703125 65.3828125 C-16.68246094 66.06085938 -16.40789063 66.73890625 -16.125 67.4375 C-15.81175781 68.20449219 -15.49851562 68.97148437 -15.17578125 69.76171875 C-13.92572012 73.45533828 -13.03358357 77.2158525 -12.21875 81.02734375 C-11.50739857 83.47758891 -11.50739857 83.47758891 -9.21875 84.62890625 C-8.5896875 84.85449219 -7.960625 85.08007812 -7.3125 85.3125 C-5.37423858 81.04832488 -3.88475632 76.87181136 -2.5625 72.375 C-0.50180972 66.38705215 1.29097885 61.89738674 6.6875 58.3125 C13.15085416 55.43635591 19.91757778 53.33628991 26.6875 51.3125 C26.4802597 49.34198007 26.4802597 49.34198007 25.6875 47.3125 C24.01321155 46.30807426 24.01321155 46.30807426 21.8984375 45.8203125 C21.12113281 45.58957031 20.34382813 45.35882813 19.54296875 45.12109375 C17.91310657 44.67191913 16.28290748 44.22396493 14.65234375 43.77734375 C8.02375652 41.80727103 2.87377376 38.95628961 -0.765625 32.890625 C-1.02859375 32.12234375 -1.2915625 31.3540625 -1.5625 30.5625 C-1.86671875 29.71300781 -2.1709375 28.86351562 -2.484375 27.98828125 C-3.5827367 24.43932953 -4.54908167 20.86086284 -5.40625 17.24609375 C-5.7053125 16.60800781 -6.004375 15.96992188 -6.3125 15.3125 C-8.33363443 14.66484537 -8.33363443 14.66484537 -10.3125 14.3125 Z " fill="#000000" transform="translate(65.3125,275.6875)"/>
<path d="M0 0 C6.43890287 5.39070938 8.11763256 10.99735727 10.22265625 18.83203125 C11.6928999 23.78849602 11.6928999 23.78849602 15.48046875 27.19140625 C18.67883529 28.24713991 21.86749495 29.20608511 25.125 30.0625 C32.54551943 32.29627096 36.80475391 34.90964404 40.625 41.6875 C42.64282549 48.45315018 41.92361845 53.00891441 38.6875 59.25 C35.76947555 63.57398169 33.33995115 65.16727412 28.4375 66.875 C26.71660156 67.49955078 26.71660156 67.49955078 24.9609375 68.13671875 C23.03747415 68.79087991 21.10736936 69.4269129 19.1640625 70.01953125 C15.68064773 71.12671327 13.99370539 71.73290315 12.09375 74.94140625 C10.71414569 78.18730862 9.72805501 81.34705218 8.8125 84.75 C6.78982144 91.47693855 4.84563773 94.99418734 -0.9375 99.125 C-6.85075752 101.09608584 -12.69101675 101.09085312 -18.625 99.1875 C-25.53246238 94.20770154 -27.61505049 89.68860965 -29.625 81.5625 C-30.95446114 75.96520071 -30.95446114 75.96520071 -34.203125 71.3984375 C-36.57493783 70.3490383 -38.77061609 69.76602155 -41.3125 69.25 C-49.74232839 66.98085244 -55.48850145 64.85287149 -60.3125 57.25 C-62.06968095 51.97845714 -62.29879293 46.24410355 -60.546875 40.92578125 C-55.79892081 32.14875327 -45.67502125 29.84886324 -36.78125 26.94921875 C-34.3125 26.25 -34.3125 26.25 -32.3125 26.25 C-32.14234375 25.48816406 -31.9721875 24.72632812 -31.796875 23.94140625 C-27.54874012 5.84164009 -27.54874012 5.84164009 -20.3125 0.25 C-13.47774508 -3.5870554 -6.92018353 -3.65594601 0 0 Z M-10.3125 13.25 C-12.7153925 14.1574433 -12.7153925 14.1574433 -13.42578125 17.56640625 C-13.82862376 18.9808908 -14.22817769 20.39631474 -14.625 21.8125 C-17.1600692 30.29270932 -19.16141184 36.8494433 -27.31542969 41.29980469 C-30.68328585 42.90221253 -34.17559364 43.96005378 -37.75 45 C-38.48154297 45.22042969 -39.21308594 45.44085938 -39.96679688 45.66796875 C-41.74640085 46.20301308 -43.5291368 46.7276223 -45.3125 47.25 C-45.10779679 49.21928826 -45.10779679 49.21928826 -44.3125 51.25 C-42.6224216 52.27046705 -42.6224216 52.27046705 -40.48828125 52.77734375 C-39.31555664 53.13022461 -39.31555664 53.13022461 -38.11914062 53.49023438 C-37.29607422 53.72033203 -36.47300781 53.95042969 -35.625 54.1875 C-28.69026197 56.13945914 -23.4431149 58.02644854 -18.9921875 64.03125 C-16.48466815 69.38711658 -14.91025431 74.86319641 -13.4375 80.58984375 C-13.06625 81.46769531 -12.695 82.34554687 -12.3125 83.25 C-10.28866794 83.95447302 -10.28866794 83.95447302 -8.3125 84.25 C-8.01013428 83.37263184 -8.01013428 83.37263184 -7.70166016 82.47753906 C-6.78310571 79.81737162 -5.86034791 77.15868088 -4.9375 74.5 C-4.62039063 73.57960937 -4.30328125 72.65921875 -3.9765625 71.7109375 C-3.6671875 70.82148437 -3.3578125 69.93203125 -3.0390625 69.015625 C-2.75627441 68.19868164 -2.47348633 67.38173828 -2.18212891 66.54003906 C0.05993984 60.63588274 0.05993984 60.63588274 2.5234375 59.12109375 C3.23757813 58.83363281 3.95171875 58.54617187 4.6875 58.25 C5.42226563 57.93160156 6.15703125 57.61320312 6.9140625 57.28515625 C12.75238118 54.91749933 18.62267216 52.95331335 24.6875 51.25 C24.6875 49.93 24.6875 48.61 24.6875 47.25 C23.52992188 46.86328125 22.37234375 46.4765625 21.1796875 46.078125 C19.64046954 45.55253838 18.10141564 45.02647114 16.5625 44.5 C15.42167969 44.12101562 15.42167969 44.12101562 14.2578125 43.734375 C7.16308018 41.28791558 1.73289724 38.39413378 -2.15625 31.8125 C-4.12213961 27.45566358 -5.19880983 22.8614452 -6.3203125 18.2265625 C-7.06742624 14.96998096 -7.06742624 14.96998096 -10.3125 13.25 Z " fill="#000000" transform="translate(465.3125,54.75)"/>
<path d="M0 0 C3.83569579 0.0612731 6.12228323 0.87243772 9.375 2.875 C14.97407039 6.28693352 20.15711123 7.16492175 26.6171875 5.921875 C30.28035511 4.90010124 33.35467899 3.81217065 36.5625 1.75 C40.28044431 -0.30465343 42.711277 -0.09916324 46.9375 0.4375 C49.5 2.5 49.5 2.5 50.9375 5.4375 C51.1875 8.875 51.1875 8.875 49.9375 12.4375 C42.5985111 20.40229415 31.96118434 23.07809731 21.52734375 23.53125 C10.89786514 23.25365752 0.59792915 20.09792915 -7.0625 12.4375 C-8.04320061 9.41367312 -8.17712421 7.81664161 -7.25 4.75 C-5.35752595 1.0646558 -4.03978746 0.12112238 0 0 Z " fill="#000000" transform="translate(171.0625,196.5625)"/>
<path d="M0 0 C2.567346 1.15757952 5.00974926 2.476446 7.48828125 3.8125 C13.27652874 6.54908979 19.02459035 6.48751858 25.1015625 4.74609375 C27.07249295 3.97150997 28.71523011 3.0096614 30.5 1.875 C34.95190684 -0.50995009 37.02386866 -0.65260739 42 0 C44.5 1.5625 44.5 1.5625 46 4 C46.68518128 8.18721894 46.61074382 10.14495865 44.125 13.625 C33.78467835 21.48364445 23.35534122 23.77296164 10.54296875 22.61328125 C3.13932069 21.33172365 -3.76201002 18.15865998 -10 14 C-12.48038907 10.2794164 -12.46337203 8.40203429 -12 4 C-9.12279276 -0.67546176 -5.07918761 -1.04905768 0 0 Z " fill="#000000" transform="translate(289,197)"/>
<path d="M0 0 C1.65358885 0.75261222 3.27859576 1.57016226 4.875 2.4375 C10.64485694 5.53890856 15.94941428 6.851397 22.453125 5.484375 C25.81414785 4.43822882 28.57527844 3.28668705 31.5 1.3125 C35.26173308 -0.66240987 38.84183542 -0.69703337 43 0 C46.09221812 2.2488859 46.01720898 4.09699606 46.6875 7.875 C46.57042436 10.49944566 46.27323539 11.66756361 44.59375 13.7109375 C35.16692231 21.32194182 23.24393886 23.64652549 11.375 22.81640625 C3.56730409 21.60270993 -4.86329712 18.29275775 -10.35546875 12.52734375 C-12 10 -12 10 -11.9375 6.375 C-11 3 -11 3 -9.9375 1.0625 C-6.66021643 -0.73472002 -3.56986248 -0.67275846 0 0 Z " fill="#000000" transform="translate(232,274)"/>
</svg>
